<?xml version="1.0" encoding="UTF-8" standalone="no"?>
<!-- Created with Inkscape (http://www.inkscape.org/) -->

<svg
   xmlns:dc="http://purl.org/dc/elements/1.1/"
   xmlns:cc="http://creativecommons.org/ns#"
   xmlns:rdf="http://www.w3.org/1999/02/22-rdf-syntax-ns#"
   xmlns:svg="http://www.w3.org/2000/svg"
   xmlns="http://www.w3.org/2000/svg"
   version="1.1"
   width="38.958736"
   height="44.999744"
   id="svg2999">
  <defs
     id="defs3001" />
  <metadata
     id="metadata3004">
    <rdf:RDF>
      <cc:Work
         rdf:about="">
        <dc:format>image/svg+xml</dc:format>
        <dc:type
           rdf:resource="http://purl.org/dc/dcmitype/StillImage" />
        <dc:title></dc:title>
      </cc:Work>
    </rdf:RDF>
  </metadata>
  <g
     transform="translate(-238.7121,-382.97222)"
     id="layer1">
    <g
       transform="matrix(0.20425047,0,0,-0.20425047,190.39052,518.89202)"
       id="g3067">
      <g
         transform="translate(366.6,642.3)"
         id="g3069">
        <path
           d="m 0,0 c 16.88,16.2 37.12,23.9 60.72,23.1 l 0,-61.38 c -9.36,0.6 -16.3,-2.26 -20.82,-8.58 -4.52,-6.32 -6.32,-14.68 -5.4,-25.08 l 26.22,0 0,-61.56 -26.22,0 0,-60.24 -59.82,0 0,77.04 c 0,12.393 -10.074,22.44 -22.5,22.44 -12.393,0 -22.44,-10.047 -22.44,-22.44 0,-12.426 10.047,-22.5 22.44,-22.5 4.828,0 9.546,1.537 13.44,4.38 l 0,-61.08 c -4.711,-0.838 -9.469,-1.26 -14.22,-1.26 -44.967,0 -81.42,36.453 -81.42,81.42 0,44.967 36.453,81.42 81.42,81.42 9.216,0 18.34,-1.561 27,-4.62 4,15.92 11.2,28.9 21.6,38.94"
           id="path3071"
           style="fill:#E55151;fill-opacity:1;fill-rule:nonzero;stroke:none" />
      </g>
    </g>
  </g>
</svg>
